<svg width="800" height="600" xmlns="http://www.w3.org/2000/svg">
 <g id="Layer_1">
  <title>Layer 1</title>
  <path id="svg_1" d="m143.28495,331.83496l0,0c0,-109.62851 84.39433,-198.5 188.5,-198.5l0,0c49.99329,0 97.93902,20.91332 133.2896,58.13929c35.35062,37.22598 55.2104,87.71522 55.2104,140.36071l0,0c0,109.6285 -84.39433,198.5 -188.5,198.5l0,0c-104.10565,0 -188.5,-88.8715 -188.5,-198.5zm94.25,0l0,0c0,54.81424 42.19719,99.25 94.25,99.25c52.05284,0 94.25,-44.43576 94.25,-99.25c0,-54.81424 -42.19718,-99.25 -94.25,-99.25l0,0c-52.05281,0 -94.25,44.43577 -94.25,99.25z" stroke="#7f007f" fill="#ff0000"/>
 </g>
</svg>